<?xml version="1.0" encoding="UTF-8" standalone="no"?>
<!DOCTYPE svg PUBLIC "-//W3C//DTD SVG 1.1//EN"
 "http://www.w3.org/Graphics/SVG/1.1/DTD/svg11.dtd">
<!-- Generated by graphviz version 2.50.0 (20211204.2007)
 -->
<!-- Title: G Pages: 1 -->
<svg width="915pt" height="1205pt"
 viewBox="0.00 0.00 915.20 1205.00" xmlns="http://www.w3.org/2000/svg" xmlns:xlink="http://www.w3.org/1999/xlink">
<g id="graph0" class="graph" transform="scale(1 1) rotate(0) translate(4 1201)">
<title>G</title>
<polygon fill="white" stroke="transparent" points="-4,4 -4,-1201 911.2,-1201 911.2,4 -4,4"/>
<!-- def -->
<g id="node1" class="node">
<title>def</title>
<g id="a_node1"><a xlink:title="def&#10;/Users/sin/go/src/github.com/berquerant/gotypegraph/def&#10;In:&#10;def 12&#10;main 3&#10;ref 5&#10;use 1&#10;Out:&#10;def 12&#10;">
<polygon fill="none" stroke="black" points="708.2,-124 616.2,-124 616.2,0 708.2,0 708.2,-124"/>
<text text-anchor="start" x="629.7" y="-107.4" font-family="Times,serif" font-weight="bold" font-size="12.00">package</text>
<text text-anchor="start" x="680.2" y="-107.4" font-family="Times,serif" font-weight="bold" font-size="12.00">def</text>
<text text-anchor="start" x="628.2" y="-88.4" font-family="Times,serif" font-weight="bold" font-size="12.00">IO</text>
<text text-anchor="start" x="683.2" y="-87.4" font-family="Times,serif" font-size="12.00">33</text>
<text text-anchor="start" x="628.2" y="-69.4" font-family="Times,serif" font-weight="bold" font-size="12.00">In</text>
<text text-anchor="start" x="683.2" y="-68.4" font-family="Times,serif" font-size="12.00">21</text>
<text text-anchor="start" x="628.2" y="-50.4" font-family="Times,serif" font-weight="bold" font-size="12.00">Out</text>
<text text-anchor="start" x="683.2" y="-49.4" font-family="Times,serif" font-size="12.00">12</text>
<text text-anchor="start" x="628.2" y="-31.4" font-family="Times,serif" font-weight="bold" font-size="12.00">UniqIn</text>
<text text-anchor="start" x="689.2" y="-30.4" font-family="Times,serif" font-size="12.00">4</text>
<text text-anchor="start" x="628.2" y="-12.4" font-family="Times,serif" font-weight="bold" font-size="12.00">UniqOut</text>
<text text-anchor="start" x="689.2" y="-11.4" font-family="Times,serif" font-size="12.00">1</text>
</a>
</g>
</g>
<!-- def&#45;&gt;def -->
<g id="edge15" class="edge">
<title>def&#45;&gt;def</title>
<g id="a_edge15"><a xlink:title="def &#45;&gt; def [12]">
<path fill="none" stroke="black" stroke-width="2" d="M708.22,-77.73C718.6,-76.31 726.2,-71.07 726.2,-62 726.2,-56.19 723.08,-51.95 718.11,-49.28"/>
<polygon fill="black" stroke="black" stroke-width="2" points="718.81,-45.83 708.22,-46.27 716.77,-52.53 718.81,-45.83"/>
</a>
</g>
<g id="a_edge15&#45;label"><a xlink:title="def &#45;&gt; def [12]">
<text text-anchor="middle" x="733.2" y="-58.3" font-family="Times,serif" font-size="14.00">12</text>
</a>
</g>
</g>
<!-- stat -->
<g id="node2" class="node">
<title>stat</title>
<g id="a_node2"><a xlink:title="stat&#10;/Users/sin/go/src/github.com/berquerant/gotypegraph/stat&#10;In:&#10;display 42&#10;stat 67&#10;Out:&#10;stat 67&#10;use 8&#10;util 24&#10;">
<polygon fill="none" stroke="black" points="390.2,-805 242.2,-805 242.2,-615 390.2,-615 390.2,-805"/>
<text text-anchor="start" x="256.7" y="-780.4" font-family="Times,serif" font-weight="bold" font-size="22.00">package</text>
<text text-anchor="start" x="343.2" y="-780.4" font-family="Times,serif" font-weight="bold" font-size="22.00">stat</text>
<text text-anchor="start" x="254.2" y="-750.4" font-family="Times,serif" font-weight="bold" font-size="22.00">IO</text>
<text text-anchor="start" x="344.2" y="-749.4" font-family="Times,serif" font-size="22.00">208</text>
<text text-anchor="start" x="254.2" y="-720.4" font-family="Times,serif" font-weight="bold" font-size="22.00">In</text>
<text text-anchor="start" x="344.2" y="-719.4" font-family="Times,serif" font-size="22.00">109</text>
<text text-anchor="start" x="254.2" y="-690.4" font-family="Times,serif" font-weight="bold" font-size="22.00">Out</text>
<text text-anchor="start" x="355.2" y="-689.4" font-family="Times,serif" font-size="22.00">99</text>
<text text-anchor="start" x="254.2" y="-660.4" font-family="Times,serif" font-weight="bold" font-size="22.00">UniqIn</text>
<text text-anchor="start" x="366.2" y="-659.4" font-family="Times,serif" font-size="22.00">2</text>
<text text-anchor="start" x="254.2" y="-630.4" font-family="Times,serif" font-weight="bold" font-size="22.00">UniqOut</text>
<text text-anchor="start" x="366.2" y="-629.4" font-family="Times,serif" font-size="22.00">3</text>
</a>
</g>
</g>
<!-- stat&#45;&gt;stat -->
<g id="edge23" class="edge">
<title>stat&#45;&gt;stat</title>
<g id="a_edge23"><a xlink:title="stat &#45;&gt; stat [67]">
<path fill="none" stroke="black" stroke-width="4" d="M390.56,-730.19C401.11,-726.93 408.2,-720.2 408.2,-710 408.2,-703.15 405,-697.86 399.7,-694.14"/>
<polygon fill="black" stroke="black" stroke-width="4" points="401.09,-690.93 390.56,-689.81 398.09,-697.25 401.09,-690.93"/>
</a>
</g>
<g id="a_edge23&#45;label"><a xlink:title="stat &#45;&gt; stat [67]">
<text text-anchor="middle" x="415.2" y="-706.3" font-family="Times,serif" font-size="14.00">67</text>
</a>
</g>
</g>
<!-- use -->
<g id="node3" class="node">
<title>use</title>
<g id="a_node3"><a xlink:title="use&#10;/Users/sin/go/src/github.com/berquerant/gotypegraph/use&#10;In:&#10;display 23&#10;main 10&#10;profile 4&#10;stat 8&#10;use 101&#10;Out:&#10;def 1&#10;ref 2&#10;use 101&#10;">
<polygon fill="none" stroke="black" points="578.7,-564 419.7,-564 419.7,-362 578.7,-362 578.7,-564"/>
<text text-anchor="start" x="435.7" y="-537.8" font-family="Times,serif" font-weight="bold" font-size="24.00">package</text>
<text text-anchor="start" x="531.7" y="-537.8" font-family="Times,serif" font-weight="bold" font-size="24.00">use</text>
<text text-anchor="start" x="432.2" y="-505.8" font-family="Times,serif" font-weight="bold" font-size="24.00">IO</text>
<text text-anchor="start" x="530.2" y="-504.8" font-family="Times,serif" font-size="24.00">250</text>
<text text-anchor="start" x="432.2" y="-473.8" font-family="Times,serif" font-weight="bold" font-size="24.00">In</text>
<text text-anchor="start" x="530.2" y="-472.8" font-family="Times,serif" font-size="24.00">146</text>
<text text-anchor="start" x="432.2" y="-441.8" font-family="Times,serif" font-weight="bold" font-size="24.00">Out</text>
<text text-anchor="start" x="530.2" y="-440.8" font-family="Times,serif" font-size="24.00">104</text>
<text text-anchor="start" x="432.2" y="-409.8" font-family="Times,serif" font-weight="bold" font-size="24.00">UniqIn</text>
<text text-anchor="start" x="554.2" y="-408.8" font-family="Times,serif" font-size="24.00">5</text>
<text text-anchor="start" x="432.2" y="-377.8" font-family="Times,serif" font-weight="bold" font-size="24.00">UniqOut</text>
<text text-anchor="start" x="554.2" y="-376.8" font-family="Times,serif" font-size="24.00">3</text>
</a>
</g>
</g>
<!-- stat&#45;&gt;use -->
<g id="edge7" class="edge">
<title>stat&#45;&gt;use</title>
<g id="a_edge7"><a xlink:title="stat &#45;&gt; use [8]">
<path fill="none" stroke="black" stroke-width="2" d="M365.31,-614.99C372.74,-603.47 380.76,-592.18 389.2,-582 397.04,-572.53 401.42,-572.61 410.2,-564 410.87,-563.34 411.54,-562.68 412.21,-562.01"/>
<polygon fill="black" stroke="black" stroke-width="2" points="414.88,-564.29 419.45,-554.73 409.91,-559.36 414.88,-564.29"/>
</a>
</g>
<g id="a_edge7&#45;label"><a xlink:title="stat &#45;&gt; use [8]">
<text text-anchor="middle" x="392.7" y="-585.8" font-family="Times,serif" font-size="14.00">8</text>
</a>
</g>
</g>
<!-- util -->
<g id="node9" class="node">
<title>util</title>
<g id="a_node9"><a xlink:title="util&#10;/Users/sin/go/src/github.com/berquerant/gotypegraph/util&#10;In:&#10;display 14&#10;dot 18&#10;profile 22&#10;stat 24&#10;util 3&#10;Out:&#10;util 3&#10;">
<polygon fill="none" stroke="black" points="376.7,-543 255.7,-543 255.7,-383 376.7,-383 376.7,-543"/>
<text text-anchor="start" x="271.2" y="-522.4" font-family="Times,serif" font-weight="bold" font-size="17.00">package</text>
<text text-anchor="start" x="340.2" y="-522.4" font-family="Times,serif" font-weight="bold" font-size="17.00">util</text>
<text text-anchor="start" x="268.2" y="-497.4" font-family="Times,serif" font-weight="bold" font-size="17.00">IO</text>
<text text-anchor="start" x="348.2" y="-496.4" font-family="Times,serif" font-size="17.00">84</text>
<text text-anchor="start" x="268.2" y="-472.4" font-family="Times,serif" font-weight="bold" font-size="17.00">In</text>
<text text-anchor="start" x="348.2" y="-471.4" font-family="Times,serif" font-size="17.00">81</text>
<text text-anchor="start" x="268.2" y="-447.4" font-family="Times,serif" font-weight="bold" font-size="17.00">Out</text>
<text text-anchor="start" x="356.2" y="-446.4" font-family="Times,serif" font-size="17.00">3</text>
<text text-anchor="start" x="268.2" y="-422.4" font-family="Times,serif" font-weight="bold" font-size="17.00">UniqIn</text>
<text text-anchor="start" x="356.2" y="-421.4" font-family="Times,serif" font-size="17.00">5</text>
<text text-anchor="start" x="268.2" y="-397.4" font-family="Times,serif" font-weight="bold" font-size="17.00">UniqOut</text>
<text text-anchor="start" x="356.2" y="-396.4" font-family="Times,serif" font-size="17.00">1</text>
</a>
</g>
</g>
<!-- stat&#45;&gt;util -->
<g id="edge6" class="edge">
<title>stat&#45;&gt;util</title>
<g id="a_edge6"><a xlink:title="stat &#45;&gt; util [24]">
<path fill="none" stroke="black" stroke-width="4" d="M316.2,-614.98C316.2,-594.66 316.2,-573.24 316.2,-553.11"/>
<polygon fill="black" stroke="black" stroke-width="4" points="319.7,-553.04 316.2,-543.04 312.7,-553.04 319.7,-553.04"/>
</a>
</g>
<g id="a_edge6&#45;label"><a xlink:title="stat &#45;&gt; util [24]">
<text text-anchor="middle" x="323.2" y="-585.8" font-family="Times,serif" font-size="14.00">24</text>
</a>
</g>
</g>
<!-- use&#45;&gt;def -->
<g id="edge25" class="edge">
<title>use&#45;&gt;def</title>
<g id="a_edge25"><a xlink:title="use &#45;&gt; def [1]">
<path fill="none" stroke="black" d="M527.5,-361.75C544.69,-305.73 568.62,-235.26 596.2,-175 602.55,-161.11 610.16,-146.74 617.91,-133.11"/>
<polygon fill="black" stroke="black" points="621.05,-134.68 623.02,-124.27 614.99,-131.18 621.05,-134.68"/>
</a>
</g>
<g id="a_edge25&#45;label"><a xlink:title="use &#45;&gt; def [1]">
<text text-anchor="middle" x="599.7" y="-239.3" font-family="Times,serif" font-size="14.00">1</text>
</a>
</g>
</g>
<!-- use&#45;&gt;use -->
<g id="edge11" class="edge">
<title>use&#45;&gt;use</title>
<g id="a_edge11"><a xlink:title="use &#45;&gt; use [101]">
<path fill="none" stroke="black" stroke-width="5" d="M578.77,-483.96C589.53,-480.45 596.7,-473.46 596.7,-463 596.7,-455.97 593.46,-450.51 588.07,-446.62"/>
<polygon fill="black" stroke="black" stroke-width="5" points="589.67,-442.53 578.77,-442.04 585.81,-450.38 589.67,-442.53"/>
</a>
</g>
<g id="a_edge11&#45;label"><a xlink:title="use &#45;&gt; use [101]">
<text text-anchor="middle" x="607.2" y="-459.3" font-family="Times,serif" font-size="14.00">101</text>
</a>
</g>
</g>
<!-- ref -->
<g id="node7" class="node">
<title>ref</title>
<g id="a_node7"><a xlink:title="ref&#10;/Users/sin/go/src/github.com/berquerant/gotypegraph/ref&#10;In:&#10;main 2&#10;ref 13&#10;use 2&#10;Out:&#10;def 5&#10;ref 13&#10;">
<polygon fill="none" stroke="black" points="711.7,-311 612.7,-311 612.7,-175 711.7,-175 711.7,-311"/>
<text text-anchor="start" x="627.2" y="-292.8" font-family="Times,serif" font-weight="bold" font-size="14.00">package</text>
<text text-anchor="start" x="683.2" y="-292.8" font-family="Times,serif" font-weight="bold" font-size="14.00">ref</text>
<text text-anchor="start" x="625.2" y="-271.8" font-family="Times,serif" font-weight="bold" font-size="14.00">IO</text>
<text text-anchor="start" x="686.2" y="-270.8" font-family="Times,serif" font-size="14.00">35</text>
<text text-anchor="start" x="625.2" y="-250.8" font-family="Times,serif" font-weight="bold" font-size="14.00">In</text>
<text text-anchor="start" x="686.2" y="-249.8" font-family="Times,serif" font-size="14.00">17</text>
<text text-anchor="start" x="625.2" y="-229.8" font-family="Times,serif" font-weight="bold" font-size="14.00">Out</text>
<text text-anchor="start" x="686.2" y="-228.8" font-family="Times,serif" font-size="14.00">18</text>
<text text-anchor="start" x="625.2" y="-208.8" font-family="Times,serif" font-weight="bold" font-size="14.00">UniqIn</text>
<text text-anchor="start" x="693.2" y="-207.8" font-family="Times,serif" font-size="14.00">3</text>
<text text-anchor="start" x="625.2" y="-187.8" font-family="Times,serif" font-weight="bold" font-size="14.00">UniqOut</text>
<text text-anchor="start" x="693.2" y="-186.8" font-family="Times,serif" font-size="14.00">2</text>
</a>
</g>
</g>
<!-- use&#45;&gt;ref -->
<g id="edge22" class="edge">
<title>use&#45;&gt;ref</title>
<g id="a_edge22"><a xlink:title="use &#45;&gt; ref [2]">
<path fill="none" stroke="black" d="M574.02,-361.93C584.93,-347.34 596.01,-332.52 606.45,-318.55"/>
<polygon fill="black" stroke="black" points="609.34,-320.54 612.52,-310.43 603.73,-316.35 609.34,-320.54"/>
</a>
</g>
<g id="a_edge22&#45;label"><a xlink:title="use &#45;&gt; ref [2]">
<text text-anchor="middle" x="599.7" y="-332.8" font-family="Times,serif" font-size="14.00">2</text>
</a>
</g>
</g>
<!-- display -->
<g id="node4" class="node">
<title>display</title>
<g id="a_node4"><a xlink:title="display&#10;/Users/sin/go/src/github.com/berquerant/gotypegraph/display&#10;In:&#10;display 17&#10;main 5&#10;Out:&#10;display 17&#10;dot 41&#10;stat 42&#10;use 23&#10;util 14&#10;">
<polygon fill="none" stroke="black" points="396.7,-1028 235.7,-1028 235.7,-856 396.7,-856 396.7,-1028"/>
<text text-anchor="start" x="250.7" y="-1005.8" font-family="Times,serif" font-weight="bold" font-size="19.00">package</text>
<text text-anchor="start" x="326.2" y="-1005.8" font-family="Times,serif" font-weight="bold" font-size="19.00">display</text>
<text text-anchor="start" x="248.2" y="-978.8" font-family="Times,serif" font-weight="bold" font-size="19.00">IO</text>
<text text-anchor="start" x="355.2" y="-977.8" font-family="Times,serif" font-size="19.00">159</text>
<text text-anchor="start" x="248.2" y="-951.8" font-family="Times,serif" font-weight="bold" font-size="19.00">In</text>
<text text-anchor="start" x="365.2" y="-950.8" font-family="Times,serif" font-size="19.00">22</text>
<text text-anchor="start" x="248.2" y="-924.8" font-family="Times,serif" font-weight="bold" font-size="19.00">Out</text>
<text text-anchor="start" x="355.2" y="-923.8" font-family="Times,serif" font-size="19.00">137</text>
<text text-anchor="start" x="248.2" y="-897.8" font-family="Times,serif" font-weight="bold" font-size="19.00">UniqIn</text>
<text text-anchor="start" x="375.2" y="-896.8" font-family="Times,serif" font-size="19.00">2</text>
<text text-anchor="start" x="248.2" y="-870.8" font-family="Times,serif" font-weight="bold" font-size="19.00">UniqOut</text>
<text text-anchor="start" x="375.2" y="-869.8" font-family="Times,serif" font-size="19.00">5</text>
</a>
</g>
</g>
<!-- display&#45;&gt;stat -->
<g id="edge17" class="edge">
<title>display&#45;&gt;stat</title>
<g id="a_edge17"><a xlink:title="display &#45;&gt; stat [42]">
<path fill="none" stroke="black" stroke-width="4" d="M316.2,-855.68C316.2,-842.54 316.2,-828.84 316.2,-815.34"/>
<polygon fill="black" stroke="black" stroke-width="4" points="319.7,-815.07 316.2,-805.07 312.7,-815.07 319.7,-815.07"/>
</a>
</g>
<g id="a_edge17&#45;label"><a xlink:title="display &#45;&gt; stat [42]">
<text text-anchor="middle" x="323.2" y="-826.8" font-family="Times,serif" font-size="14.00">42</text>
</a>
</g>
</g>
<!-- display&#45;&gt;use -->
<g id="edge8" class="edge">
<title>display&#45;&gt;use</title>
<g id="a_edge8"><a xlink:title="display &#45;&gt; use [23]">
<path fill="none" stroke="black" stroke-width="3" d="M396.83,-859.03C409.98,-842.2 422.22,-823.84 431.2,-805 468.16,-727.41 450.29,-699.27 467.2,-615 469.85,-601.79 472.69,-587.94 475.55,-574.21"/>
<polygon fill="black" stroke="black" stroke-width="3" points="479.01,-574.75 477.63,-564.25 472.16,-573.32 479.01,-574.75"/>
</a>
</g>
<g id="a_edge8&#45;label"><a xlink:title="display &#45;&gt; use [23]">
<text text-anchor="middle" x="474.2" y="-706.3" font-family="Times,serif" font-size="14.00">23</text>
</a>
</g>
</g>
<!-- display&#45;&gt;display -->
<g id="edge20" class="edge">
<title>display&#45;&gt;display</title>
<g id="a_edge20"><a xlink:title="display &#45;&gt; display [17]">
<path fill="none" stroke="black" stroke-width="3" d="M396.97,-960.19C407.63,-957.09 414.7,-951.02 414.7,-942 414.7,-935.94 411.5,-931.21 406.18,-927.82"/>
<polygon fill="black" stroke="black" stroke-width="3" points="407.53,-924.59 396.97,-923.81 404.74,-931.01 407.53,-924.59"/>
</a>
</g>
<g id="a_edge20&#45;label"><a xlink:title="display &#45;&gt; display [17]">
<text text-anchor="middle" x="421.7" y="-938.3" font-family="Times,serif" font-size="14.00">17</text>
</a>
</g>
</g>
<!-- dot -->
<g id="node8" class="node">
<title>dot</title>
<g id="a_node8"><a xlink:title="dot&#10;/Users/sin/go/src/github.com/berquerant/gotypegraph/dot&#10;In:&#10;display 41&#10;dot 71&#10;Out:&#10;dot 71&#10;util 18&#10;">
<polygon fill="none" stroke="black" points="192.2,-799 56.2,-799 56.2,-621 192.2,-621 192.2,-799"/>
<text text-anchor="start" x="71.2" y="-776" font-family="Times,serif" font-weight="bold" font-size="20.00">package</text>
<text text-anchor="start" x="151.2" y="-776" font-family="Times,serif" font-weight="bold" font-size="20.00">dot</text>
<text text-anchor="start" x="68.2" y="-748" font-family="Times,serif" font-weight="bold" font-size="20.00">IO</text>
<text text-anchor="start" x="150.2" y="-747" font-family="Times,serif" font-size="20.00">201</text>
<text text-anchor="start" x="68.2" y="-720" font-family="Times,serif" font-weight="bold" font-size="20.00">In</text>
<text text-anchor="start" x="151.2" y="-719" font-family="Times,serif" font-size="20.00">112</text>
<text text-anchor="start" x="68.2" y="-692" font-family="Times,serif" font-weight="bold" font-size="20.00">Out</text>
<text text-anchor="start" x="160.2" y="-691" font-family="Times,serif" font-size="20.00">89</text>
<text text-anchor="start" x="68.2" y="-664" font-family="Times,serif" font-weight="bold" font-size="20.00">UniqIn</text>
<text text-anchor="start" x="170.2" y="-663" font-family="Times,serif" font-size="20.00">2</text>
<text text-anchor="start" x="68.2" y="-636" font-family="Times,serif" font-weight="bold" font-size="20.00">UniqOut</text>
<text text-anchor="start" x="170.2" y="-635" font-family="Times,serif" font-size="20.00">2</text>
</a>
</g>
</g>
<!-- display&#45;&gt;dot -->
<g id="edge2" class="edge">
<title>display&#45;&gt;dot</title>
<g id="a_edge2"><a xlink:title="display &#45;&gt; dot [41]">
<path fill="none" stroke="black" stroke-width="4" d="M244.98,-855.68C229.94,-837.67 214.04,-818.62 198.88,-800.46"/>
<polygon fill="black" stroke="black" stroke-width="4" points="201.53,-798.18 192.43,-792.74 196.15,-802.66 201.53,-798.18"/>
</a>
</g>
<g id="a_edge2&#45;label"><a xlink:title="display &#45;&gt; dot [41]">
<text text-anchor="middle" x="233.2" y="-826.8" font-family="Times,serif" font-size="14.00">41</text>
</a>
</g>
</g>
<!-- display&#45;&gt;util -->
<g id="edge24" class="edge">
<title>display&#45;&gt;util</title>
<g id="a_edge24"><a xlink:title="display &#45;&gt; util [14]">
<path fill="none" stroke="black" stroke-width="3" d="M235.54,-926.55C168.5,-909.82 77.23,-875.02 33.2,-805 -11.76,-733.52 -10.24,-687.41 33.2,-615 79,-538.65 177.98,-498.77 245.85,-479.58"/>
<polygon fill="black" stroke="black" stroke-width="3" points="246.9,-482.92 255.62,-476.9 245.05,-476.17 246.9,-482.92"/>
</a>
</g>
<g id="a_edge24&#45;label"><a xlink:title="display &#45;&gt; util [14]">
<text text-anchor="middle" x="40.2" y="-706.3" font-family="Times,serif" font-size="14.00">14</text>
</a>
</g>
</g>
<!-- profile -->
<g id="node5" class="node">
<title>profile</title>
<g id="a_node5"><a xlink:title="profile&#10;/Users/sin/go/src/github.com/berquerant/gotypegraph/profile&#10;In:&#10;main 9&#10;profile 12&#10;Out:&#10;profile 12&#10;use 4&#10;util 22&#10;">
<polygon fill="none" stroke="black" points="627.7,-787 490.7,-787 490.7,-633 627.7,-633 627.7,-787"/>
<text text-anchor="start" x="505.2" y="-767.2" font-family="Times,serif" font-weight="bold" font-size="16.00">package</text>
<text text-anchor="start" x="570.2" y="-767.2" font-family="Times,serif" font-weight="bold" font-size="16.00">profile</text>
<text text-anchor="start" x="503.2" y="-743.2" font-family="Times,serif" font-weight="bold" font-size="16.00">IO</text>
<text text-anchor="start" x="599.2" y="-742.2" font-family="Times,serif" font-size="16.00">59</text>
<text text-anchor="start" x="503.2" y="-719.2" font-family="Times,serif" font-weight="bold" font-size="16.00">In</text>
<text text-anchor="start" x="599.2" y="-718.2" font-family="Times,serif" font-size="16.00">21</text>
<text text-anchor="start" x="503.2" y="-695.2" font-family="Times,serif" font-weight="bold" font-size="16.00">Out</text>
<text text-anchor="start" x="599.2" y="-694.2" font-family="Times,serif" font-size="16.00">38</text>
<text text-anchor="start" x="503.2" y="-671.2" font-family="Times,serif" font-weight="bold" font-size="16.00">UniqIn</text>
<text text-anchor="start" x="607.2" y="-670.2" font-family="Times,serif" font-size="16.00">2</text>
<text text-anchor="start" x="503.2" y="-647.2" font-family="Times,serif" font-weight="bold" font-size="16.00">UniqOut</text>
<text text-anchor="start" x="607.2" y="-646.2" font-family="Times,serif" font-size="16.00">3</text>
</a>
</g>
</g>
<!-- profile&#45;&gt;use -->
<g id="edge3" class="edge">
<title>profile&#45;&gt;use</title>
<g id="a_edge3"><a xlink:title="profile &#45;&gt; use [4]">
<path fill="none" stroke="black" d="M540.54,-632.82C535.96,-614.11 530.96,-593.71 526.08,-573.76"/>
<polygon fill="black" stroke="black" points="529.47,-572.9 523.69,-564.02 522.67,-574.56 529.47,-572.9"/>
</a>
</g>
<g id="a_edge3&#45;label"><a xlink:title="profile &#45;&gt; use [4]">
<text text-anchor="middle" x="534.7" y="-585.8" font-family="Times,serif" font-size="14.00">4</text>
</a>
</g>
</g>
<!-- profile&#45;&gt;profile -->
<g id="edge14" class="edge">
<title>profile&#45;&gt;profile</title>
<g id="a_edge14"><a xlink:title="profile &#45;&gt; profile [12]">
<path fill="none" stroke="black" stroke-width="2" d="M627.72,-730.62C638.41,-727.54 645.7,-720.66 645.7,-710 645.7,-702.84 642.41,-697.38 637.01,-693.64"/>
<polygon fill="black" stroke="black" stroke-width="2" points="638.27,-690.37 627.72,-689.38 635.35,-696.73 638.27,-690.37"/>
</a>
</g>
<g id="a_edge14&#45;label"><a xlink:title="profile &#45;&gt; profile [12]">
<text text-anchor="middle" x="652.7" y="-706.3" font-family="Times,serif" font-size="14.00">12</text>
</a>
</g>
</g>
<!-- profile&#45;&gt;util -->
<g id="edge13" class="edge">
<title>profile&#45;&gt;util</title>
<g id="a_edge13"><a xlink:title="profile &#45;&gt; util [22]">
<path fill="none" stroke="black" stroke-width="3" d="M494.28,-632.9C488.31,-626.7 482.23,-620.66 476.2,-615 449.14,-589.66 437.64,-588.92 410.2,-564 401.44,-556.05 392.55,-547.43 383.91,-538.7"/>
<polygon fill="black" stroke="black" stroke-width="3" points="386.21,-536.04 376.71,-531.34 381.2,-540.94 386.21,-536.04"/>
</a>
</g>
<g id="a_edge13&#45;label"><a xlink:title="profile &#45;&gt; util [22]">
<text text-anchor="middle" x="461.2" y="-585.8" font-family="Times,serif" font-size="14.00">22</text>
</a>
</g>
</g>
<!-- load -->
<g id="node6" class="node">
<title>load</title>
<g id="a_node6"><a xlink:title="load&#10;/Users/sin/go/src/github.com/berquerant/gotypegraph/load&#10;In:&#10;load 1&#10;main 1&#10;Out:&#10;load 1&#10;">
<polygon fill="none" stroke="black" points="882.2,-995 800.2,-995 800.2,-889 882.2,-889 882.2,-995"/>
<text text-anchor="start" x="813.7" y="-980.8" font-family="Times,serif" font-weight="bold" font-size="9.00">package</text>
<text text-anchor="start" x="853.2" y="-980.8" font-family="Times,serif" font-weight="bold" font-size="9.00">load</text>
<text text-anchor="start" x="812.2" y="-964.8" font-family="Times,serif" font-weight="bold" font-size="9.00">IO</text>
<text text-anchor="start" x="865.2" y="-963.8" font-family="Times,serif" font-size="9.00">3</text>
<text text-anchor="start" x="812.2" y="-948.8" font-family="Times,serif" font-weight="bold" font-size="9.00">In</text>
<text text-anchor="start" x="865.2" y="-947.8" font-family="Times,serif" font-size="9.00">2</text>
<text text-anchor="start" x="812.2" y="-932.8" font-family="Times,serif" font-weight="bold" font-size="9.00">Out</text>
<text text-anchor="start" x="865.2" y="-931.8" font-family="Times,serif" font-size="9.00">1</text>
<text text-anchor="start" x="812.2" y="-916.8" font-family="Times,serif" font-weight="bold" font-size="9.00">UniqIn</text>
<text text-anchor="start" x="865.2" y="-915.8" font-family="Times,serif" font-size="9.00">2</text>
<text text-anchor="start" x="812.2" y="-900.8" font-family="Times,serif" font-weight="bold" font-size="9.00">UniqOut</text>
<text text-anchor="start" x="865.2" y="-899.8" font-family="Times,serif" font-size="9.00">1</text>
</a>
</g>
</g>
<!-- load&#45;&gt;load -->
<g id="edge18" class="edge">
<title>load&#45;&gt;load</title>
<g id="a_edge18"><a xlink:title="load &#45;&gt; load [1]">
<path fill="none" stroke="black" d="M882.28,-962.34C892.53,-960.92 900.2,-954.14 900.2,-942 900.2,-934.03 896.9,-928.38 891.73,-925.02"/>
<polygon fill="black" stroke="black" points="892.87,-921.72 882.28,-921.66 890.52,-928.31 892.87,-921.72"/>
</a>
</g>
<g id="a_edge18&#45;label"><a xlink:title="load &#45;&gt; load [1]">
<text text-anchor="middle" x="903.7" y="-938.3" font-family="Times,serif" font-size="14.00">1</text>
</a>
</g>
</g>
<!-- ref&#45;&gt;def -->
<g id="edge26" class="edge">
<title>ref&#45;&gt;def</title>
<g id="a_edge26"><a xlink:title="ref &#45;&gt; def [5]">
<path fill="none" stroke="black" d="M662.2,-174.84C662.2,-161.56 662.2,-147.58 662.2,-134.17"/>
<polygon fill="black" stroke="black" points="665.7,-134.05 662.2,-124.05 658.7,-134.05 665.7,-134.05"/>
</a>
</g>
<g id="a_edge26&#45;label"><a xlink:title="ref &#45;&gt; def [5]">
<text text-anchor="middle" x="665.7" y="-145.8" font-family="Times,serif" font-size="14.00">5</text>
</a>
</g>
</g>
<!-- ref&#45;&gt;ref -->
<g id="edge9" class="edge">
<title>ref&#45;&gt;ref</title>
<g id="a_edge9"><a xlink:title="ref &#45;&gt; ref [13]">
<path fill="none" stroke="black" stroke-width="2" d="M711.94,-259.64C722.27,-257.89 729.7,-252.34 729.7,-243 729.7,-237.01 726.65,-232.59 721.74,-229.72"/>
<polygon fill="black" stroke="black" stroke-width="2" points="722.54,-226.29 711.94,-226.36 720.27,-232.91 722.54,-226.29"/>
</a>
</g>
<g id="a_edge9&#45;label"><a xlink:title="ref &#45;&gt; ref [13]">
<text text-anchor="middle" x="736.7" y="-239.3" font-family="Times,serif" font-size="14.00">13</text>
</a>
</g>
</g>
<!-- dot&#45;&gt;dot -->
<g id="edge12" class="edge">
<title>dot&#45;&gt;dot</title>
<g id="a_edge12"><a xlink:title="dot &#45;&gt; dot [71]">
<path fill="none" stroke="black" stroke-width="4" d="M192.33,-730.62C202.95,-727.54 210.2,-720.66 210.2,-710 210.2,-702.84 206.93,-697.38 201.56,-693.64"/>
<polygon fill="black" stroke="black" stroke-width="4" points="202.87,-690.39 192.33,-689.38 199.94,-696.75 202.87,-690.39"/>
</a>
</g>
<g id="a_edge12&#45;label"><a xlink:title="dot &#45;&gt; dot [71]">
<text text-anchor="middle" x="217.2" y="-706.3" font-family="Times,serif" font-size="14.00">71</text>
</a>
</g>
</g>
<!-- dot&#45;&gt;util -->
<g id="edge28" class="edge">
<title>dot&#45;&gt;util</title>
<g id="a_edge28"><a xlink:title="dot &#45;&gt; util [18]">
<path fill="none" stroke="black" stroke-width="3" d="M192.43,-621.93C210.92,-598.33 230.93,-572.81 249.34,-549.3"/>
<polygon fill="black" stroke="black" stroke-width="3" points="252.11,-551.45 255.53,-541.42 246.6,-547.13 252.11,-551.45"/>
</a>
</g>
<g id="a_edge28&#45;label"><a xlink:title="dot &#45;&gt; util [18]">
<text text-anchor="middle" x="227.2" y="-585.8" font-family="Times,serif" font-size="14.00">18</text>
</a>
</g>
</g>
<!-- util&#45;&gt;util -->
<g id="edge4" class="edge">
<title>util&#45;&gt;util</title>
<g id="a_edge4"><a xlink:title="util &#45;&gt; util [3]">
<path fill="none" stroke="black" d="M376.76,-485.15C387.34,-482.2 394.7,-474.81 394.7,-463 394.7,-455.06 391.37,-449.13 385.99,-445.19"/>
<polygon fill="black" stroke="black" points="387.3,-441.94 376.76,-440.85 384.32,-448.27 387.3,-441.94"/>
</a>
</g>
<g id="a_edge4&#45;label"><a xlink:title="util &#45;&gt; util [3]">
<text text-anchor="middle" x="398.2" y="-459.3" font-family="Times,serif" font-size="14.00">3</text>
</a>
</g>
</g>
<!-- main -->
<g id="node10" class="node">
<title>main</title>
<g id="a_node10"><a xlink:title="main&#10;/Users/sin/go/src/github.com/berquerant/gotypegraph&#10;In:&#10;main 1&#10;Out:&#10;def 3&#10;display 5&#10;load 1&#10;main 1&#10;profile 9&#10;ref 2&#10;use 10&#10;">
<polygon fill="none" stroke="black" points="736.2,-1197 640.2,-1197 640.2,-1079 736.2,-1079 736.2,-1197"/>
<text text-anchor="start" x="653.7" y="-1181.2" font-family="Times,serif" font-weight="bold" font-size="11.00">package</text>
<text text-anchor="start" x="700.2" y="-1181.2" font-family="Times,serif" font-weight="bold" font-size="11.00">main</text>
<text text-anchor="start" x="652.2" y="-1163.2" font-family="Times,serif" font-weight="bold" font-size="11.00">IO</text>
<text text-anchor="start" x="713.2" y="-1162.2" font-family="Times,serif" font-size="11.00">32</text>
<text text-anchor="start" x="652.2" y="-1145.2" font-family="Times,serif" font-weight="bold" font-size="11.00">In</text>
<text text-anchor="start" x="718.2" y="-1144.2" font-family="Times,serif" font-size="11.00">1</text>
<text text-anchor="start" x="652.2" y="-1127.2" font-family="Times,serif" font-weight="bold" font-size="11.00">Out</text>
<text text-anchor="start" x="713.2" y="-1126.2" font-family="Times,serif" font-size="11.00">31</text>
<text text-anchor="start" x="652.2" y="-1109.2" font-family="Times,serif" font-weight="bold" font-size="11.00">UniqIn</text>
<text text-anchor="start" x="718.2" y="-1108.2" font-family="Times,serif" font-size="11.00">1</text>
<text text-anchor="start" x="652.2" y="-1091.2" font-family="Times,serif" font-weight="bold" font-size="11.00">UniqOut</text>
<text text-anchor="start" x="718.2" y="-1090.2" font-family="Times,serif" font-size="11.00">7</text>
</a>
</g>
</g>
<!-- main&#45;&gt;def -->
<g id="edge5" class="edge">
<title>main&#45;&gt;def</title>
<g id="a_edge5"><a xlink:title="main &#45;&gt; def [3]">
<path fill="none" stroke="black" d="M728.23,-1078.65C749.86,-1041.51 772.2,-991.45 772.2,-943 772.2,-943 772.2,-943 772.2,-242 772.2,-194.05 743.19,-148.14 714.97,-114.83"/>
<polygon fill="black" stroke="black" points="717.41,-112.31 708.21,-107.06 712.13,-116.9 717.41,-112.31"/>
</a>
</g>
<g id="a_edge5&#45;label"><a xlink:title="main &#45;&gt; def [3]">
<text text-anchor="middle" x="775.7" y="-585.8" font-family="Times,serif" font-size="14.00">3</text>
</a>
</g>
</g>
<!-- main&#45;&gt;use -->
<g id="edge21" class="edge">
<title>main&#45;&gt;use</title>
<g id="a_edge21"><a xlink:title="main &#45;&gt; use [10]">
<path fill="none" stroke="black" stroke-width="2" d="M691.61,-1078.58C697.62,-960.03 706.14,-695.62 668.2,-615 650.43,-577.26 618.4,-544.88 586.96,-519.9"/>
<polygon fill="black" stroke="black" stroke-width="2" points="589.03,-517.07 578.99,-513.7 584.74,-522.6 589.03,-517.07"/>
</a>
</g>
<g id="a_edge21&#45;label"><a xlink:title="main &#45;&gt; use [10]">
<text text-anchor="middle" x="704.2" y="-826.8" font-family="Times,serif" font-size="14.00">10</text>
</a>
</g>
</g>
<!-- main&#45;&gt;display -->
<g id="edge1" class="edge">
<title>main&#45;&gt;display</title>
<g id="a_edge1"><a xlink:title="main &#45;&gt; display [5]">
<path fill="none" stroke="black" d="M639.94,-1111.84C580.94,-1081.06 479.84,-1028.34 406.29,-989.99"/>
<polygon fill="black" stroke="black" points="407.5,-986.67 397.01,-985.15 404.26,-992.87 407.5,-986.67"/>
</a>
</g>
<g id="a_edge1&#45;label"><a xlink:title="main &#45;&gt; display [5]">
<text text-anchor="middle" x="539.7" y="-1049.8" font-family="Times,serif" font-size="14.00">5</text>
</a>
</g>
</g>
<!-- main&#45;&gt;profile -->
<g id="edge10" class="edge">
<title>main&#45;&gt;profile</title>
<g id="a_edge10"><a xlink:title="main &#45;&gt; profile [9]">
<path fill="none" stroke="black" stroke-width="2" d="M670.53,-1078.66C648.49,-1005.89 610.63,-880.86 585.26,-797.07"/>
<polygon fill="black" stroke="black" stroke-width="2" points="588.56,-795.88 582.31,-787.32 581.86,-797.91 588.56,-795.88"/>
</a>
</g>
<g id="a_edge10&#45;label"><a xlink:title="main &#45;&gt; profile [9]">
<text text-anchor="middle" x="658.7" y="-938.3" font-family="Times,serif" font-size="14.00">9</text>
</a>
</g>
</g>
<!-- main&#45;&gt;load -->
<g id="edge27" class="edge">
<title>main&#45;&gt;load</title>
<g id="a_edge27"><a xlink:title="main &#45;&gt; load [1]">
<path fill="none" stroke="black" d="M736.29,-1106.76C753.61,-1094.17 772.29,-1078.42 786.2,-1061 799.59,-1044.23 810.61,-1023.66 819.18,-1004.42"/>
<polygon fill="black" stroke="black" points="822.45,-1005.68 823.19,-995.11 816.02,-1002.91 822.45,-1005.68"/>
</a>
</g>
<g id="a_edge27&#45;label"><a xlink:title="main &#45;&gt; load [1]">
<text text-anchor="middle" x="800.7" y="-1049.8" font-family="Times,serif" font-size="14.00">1</text>
</a>
</g>
</g>
<!-- main&#45;&gt;ref -->
<g id="edge19" class="edge">
<title>main&#45;&gt;ref</title>
<g id="a_edge19"><a xlink:title="main &#45;&gt; ref [2]">
<path fill="none" stroke="black" d="M709.45,-1078.84C721.5,-1040.74 734.2,-989.56 734.2,-943 734.2,-943 734.2,-943 734.2,-462 734.2,-413.37 717.84,-361.59 700.73,-320.69"/>
<polygon fill="black" stroke="black" points="703.88,-319.15 696.72,-311.34 697.44,-321.91 703.88,-319.15"/>
</a>
</g>
<g id="a_edge19&#45;label"><a xlink:title="main &#45;&gt; ref [2]">
<text text-anchor="middle" x="737.7" y="-706.3" font-family="Times,serif" font-size="14.00">2</text>
</a>
</g>
</g>
<!-- main&#45;&gt;main -->
<g id="edge16" class="edge">
<title>main&#45;&gt;main</title>
<g id="a_edge16"><a xlink:title="main &#45;&gt; main [1]">
<path fill="none" stroke="black" d="M736.25,-1153.28C746.65,-1151.79 754.2,-1146.7 754.2,-1138 754.2,-1132.43 751.1,-1128.34 746.14,-1125.72"/>
<polygon fill="black" stroke="black" points="746.84,-1122.27 736.25,-1122.72 744.8,-1128.97 746.84,-1122.27"/>
</a>
</g>
<g id="a_edge16&#45;label"><a xlink:title="main &#45;&gt; main [1]">
<text text-anchor="middle" x="757.7" y="-1134.3" font-family="Times,serif" font-size="14.00">1</text>
</a>
</g>
</g>
</g>
</svg>
